<svg width="244" height="368" viewBox="0 0 244 368" fill="none" xmlns="http://www.w3.org/2000/svg">
<path d="M17.3988 9.6073L17.4022 9.58621L17.4037 9.56491C17.5468 7.56365 18.3654 4.75442 20.3119 2.80267C22.222 0.887496 25.2936 -0.278032 30.138 1.10481C31.2859 1.43249 32.8351 2.36977 34.7253 3.86575C36.6024 5.35136 38.7706 7.35087 41.1514 9.74801C45.9123 14.5415 51.4946 20.8957 57.2547 27.8371C68.7526 41.6929 80.9335 57.8572 88.6565 68.5383C96.6251 91.1312 96.7251 109.461 96.7746 123.437L96.7754 123.66C96.7996 130.545 96.8203 136.42 97.8062 141.197C98.8085 146.054 100.82 149.837 104.879 152.434L104.98 152.499L105.101 152.511C119.078 153.841 128.55 157.518 134.851 162.44C141.145 167.357 144.316 173.546 145.642 179.986C148.143 192.127 144.087 205.128 141.918 212.079C141.777 212.53 141.645 212.955 141.522 213.353L141.421 213.682L141.692 213.894C158.152 226.783 163.77 234.039 166.881 244.787C168.326 249.781 169.231 255.532 170.403 262.981C170.501 263.605 170.601 264.24 170.703 264.888C172.026 273.265 173.736 283.683 176.86 297.28L176.866 297.307L176.875 297.333C183.29 315.67 187.496 329.557 190.073 339.948C192.652 350.347 193.592 357.213 193.493 361.519C193.444 363.676 193.134 365.144 192.676 366.085C192.227 367.004 191.655 367.389 191.038 367.478C190.383 367.574 189.567 367.353 188.629 366.817C187.699 366.286 186.707 365.478 185.723 364.494L185.686 364.458L185.643 364.429C150.989 341.792 132.542 311.384 118.96 285.692C117.115 282.2 115.357 278.792 113.659 275.5C109.121 266.699 105.013 258.734 100.805 252.245C95.0241 243.331 88.9712 237.063 81.1963 235.235C66.6987 231.827 56.2759 229.509 48.5909 227.8C40.768 226.06 35.7819 224.951 32.2223 223.965C28.7144 222.995 26.6343 222.154 24.6074 220.961C23.0104 220.021 21.4455 218.863 19.2397 217.231C18.6162 216.77 17.9415 216.27 17.2005 215.727C13.8914 213.303 10.1918 209.883 7.11563 206.01C4.03519 202.132 1.60861 197.836 0.794426 193.661C-0.0148328 189.51 0.765548 185.482 4.10267 182.041C7.4657 178.573 13.4741 175.65 23.2338 173.878C28.2324 172.97 31.9998 170.861 34.7287 167.807C37.4525 164.758 39.1116 160.8 39.9587 156.237C41.65 147.126 40.124 135.492 37.2233 123.51C34.3195 111.515 30.0217 99.1089 26.1209 88.4333C25.153 85.7845 24.2107 83.2449 23.3204 80.8455C20.6142 73.5523 18.3887 67.5547 17.3887 63.7249C15.2679 55.6026 14.8202 44.8998 15.1318 34.791C15.4431 24.6911 16.5105 15.228 17.3988 9.6073Z" fill="#FFF" stroke="#FFF"/>
<path d="M124 124.889C168.571 124.889 182.571 63.6298 184 33C185.429 63.6298 199.429 124.889 244 124.889C199.429 124.889 185.429 185.63 184 216C182.571 185.63 168.571 124.889 124 124.889Z" fill="#FFF"/>
<path d="M124 124.889C168.571 124.889 182.571 63.6298 184 33C185.429 63.6298 199.429 124.889 244 124.889C199.429 124.889 185.429 185.63 184 216C182.571 185.63 168.571 124.889 124 124.889Z" stroke="#FFF"/>
</svg>
